<svg xmlns="http://www.w3.org/2000/svg" width="1200" height="1200" viewBox="0 0 1200 1200" role="img" aria-label="A – Helles Honigbrett">
  <defs>
    <linearGradient id="bgGradient" x1="0" y1="0" x2="0" y2="1">
      <stop offset="0%" stop-color="#F8B327"/>
      <stop offset="52%" stop-color="#F6A51A"/>
      <stop offset="100%" stop-color="#C77115"/>
    </linearGradient>
    <radialGradient id="heroGlow" cx="50%" cy="28%" r="66%">
      <stop offset="0%" stop-color="#FFF5C8" stop-opacity="0.82"/>
      <stop offset="42%" stop-color="#FFF0BC" stop-opacity="0.28"/>
      <stop offset="100%" stop-color="#772D0E" stop-opacity="0"/>
    </radialGradient>
    <linearGradient id="boardGradient" x1="0" y1="0" x2="0" y2="1">
      <stop offset="0%" stop-color="#F7E0A8"/>
      <stop offset="100%" stop-color="#F1CE83"/>
    </linearGradient>
    <style>
      text { font-family: Inter, 'Segoe UI', Arial, sans-serif; }
      .brand { font-size: 46px; font-weight: 800; letter-spacing: 0.14em; fill: #2A140B; text-anchor: middle; font-variant: small-caps; }
      .challenge { font-size: 28px; font-weight: 700; letter-spacing: 0.14em; fill: #6E4620; text-anchor: middle; font-variant: small-caps; }
      .slot-fill { fill: rgba(255,248,233,0.44); stroke: rgba(104,63,22,0.34); stroke-width: 2.4; }
      .slot-dash { fill: transparent; stroke: rgba(104,63,22,0.24); stroke-width: 1.6; opacity: 0.55; }
      .name { font-size: 28px; font-weight: 800; letter-spacing: 0.11em; fill: #2A140B; text-anchor: middle; font-variant: small-caps; }
      .badge-text { font-size: 16px; font-weight: 800; letter-spacing: 0.14em; fill: #5C3114; text-anchor: middle; font-variant: small-caps; }
      .rule-text { font-size: 28px; font-weight: 800; letter-spacing: 0.08em; fill: #FFF5DE; font-variant: small-caps; }
      .rule-text.small { font-size: 24px; }
    </style>
  </defs>
  <rect width="1200" height="1200" fill="url(#bgGradient)"/>
  <rect width="1200" height="1200" fill="url(#heroGlow)"/>
  
    <g id="background-scenery" opacity="0.78">
      <rect x="78" y="92" width="228" height="12" rx="6" fill="#7C4517" opacity="0.38"/>
      <rect x="915" y="118" width="205" height="12" rx="6" fill="#7C4517" opacity="0.36"/>
      <rect x="200" y="102" width="14" height="96" rx="7" fill="#7C4517" opacity="0.25"/>
      <rect x="1032" y="128" width="14" height="88" rx="7" fill="#7C4517" opacity="0.25"/>
      <g transform="translate(510,82)" fill="#7C4517" opacity="0.28">
        <rect x="-145" y="0" width="290" height="10" rx="5"/>
        <rect x="-120" y="8" width="10" height="72" rx="5"/>
        <rect x="-40" y="8" width="10" height="84" rx="5"/>
        <rect x="40" y="8" width="10" height="74" rx="5"/>
        <rect x="120" y="8" width="10" height="62" rx="5"/>
        <path d="M-115 78 h20 v44 a22 22 0 0 1 -20 0z"/>
        <path d="M-37 92 h4 v42 h-4z M-55 92 h40 v14 h-40z M-55 114 h40 v14 h-40z"/>
        <path d="M45 82 c-18 18 -18 54 0 72 c18 -18 18 -54 0 -72z"/>
        <circle cx="125" cy="106" r="22"/>
        <circle cx="115" cy="106" r="2" fill="#F6A51A" opacity="0.35"/>
        <circle cx="125" cy="98" r="2" fill="#F6A51A" opacity="0.35"/>
        <circle cx="132" cy="112" r="2" fill="#F6A51A" opacity="0.35"/>
        <circle cx="120" cy="118" r="2" fill="#F6A51A" opacity="0.35"/>
      </g>
      <g fill="#7C4517" opacity="0.22">
        <ellipse cx="88" cy="264" rx="40" ry="62"/>
        <ellipse cx="118" cy="236" rx="26" ry="48"/>
        <ellipse cx="1110" cy="240" rx="36" ry="54"/>
        <ellipse cx="1088" cy="272" rx="28" ry="44"/>
      </g>
      <g fill="#FFF4C4" opacity="0.45">
        <circle cx="374" cy="186" r="5"/>
        <circle cx="850" cy="198" r="4"/>
        <path d="M254 170 l9 18 l18 9 l-18 9 l-9 18 l-9 -18 l-18 -9 l18 -9z" opacity="0.48"/>
        <path d="M942 168 l7 14 l14 7 l-14 7 l-7 14 l-7 -14 l-14 -7 l14 -7z" opacity="0.42"/>
      </g>
    </g>
  
    <g id="header">
      <text x="600" y="100" class="brand">Mise en Dice</text>
      <text x="600" y="158" class="challenge">Challenge #124</text>
    </g>
  
    <g id="board">
      <filter id="boardShadow" x="-20%" y="-20%" width="140%" height="140%">
        <feDropShadow dx="0" dy="16" stdDeviation="18" flood-color="#000000" flood-opacity="0.18"/>
      </filter>
      <rect x="82" y="240" width="1056" height="918" rx="58" fill="rgba(41,20,11,0.18)" opacity="0.45"/>
      <rect x="72" y="222" width="1056" height="918" rx="56" fill="url(#boardGradient)" stroke="#8A5B27" stroke-width="4" filter="url(#boardShadow)"/>
      <path d="M94 308 C 292 288, 514 334, 720 314 S 1008 294, 1094 330" fill="none" stroke="rgba(255,255,255,0.16)" stroke-width="7" stroke-linecap="round"/>
      <path d="M106 436 C 292 460, 492 410, 674 438 S 988 470, 1092 438" fill="none" stroke="rgba(255,255,255,0.10)" stroke-width="5" stroke-linecap="round"/>
      <path d="M96 680 C 282 652, 504 696, 754 666 S 948 684, 1104 660" fill="none" stroke="rgba(0,0,0,0.06)" stroke-width="6" stroke-linecap="round"/>
      <path d="M90 894 C 312 934, 522 868, 782 910 S 948 932, 1110 896" fill="none" stroke="rgba(0,0,0,0.08)" stroke-width="5" stroke-linecap="round"/>
    </g>
  
    <g class="slot-group">
      <rect x="144" y="302" width="432" height="300" rx="34" class="slot-fill"/>
      <rect x="164" y="320" width="392" height="262" rx="28" class="slot-dash"/>
      
        <g aria-label="helles Motiv" transform="translate(360.0,424)">
          <ellipse cx="-24" cy="6" rx="56" ry="74" fill="#FFF4DB" stroke="#A68A62" stroke-width="4"/>
          <ellipse cx="26" cy="0" rx="62" ry="82" fill="#FFF8E7" stroke="#A68A62" stroke-width="4"/>
          <path d="M18 -78 C 4 -118, 32 -118, 22 -72" fill="none" stroke="#A68A62" stroke-width="6" stroke-linecap="round"/>
          <path d="M-8 -68 C -22 -100, 4 -102, -2 -62" fill="none" stroke="#A68A62" stroke-width="5" stroke-linecap="round"/>
          <ellipse cx="84" cy="80" rx="52" ry="16" fill="rgba(0,0,0,0.10)"/>
        </g>
      
      <text x="360.0" y="548" class="name">KNOBLAUCH</text>
    </g>

    <g class="slot-group">
      <rect x="624" y="302" width="432" height="300" rx="34" class="slot-fill"/>
      <rect x="644" y="320" width="392" height="262" rx="28" class="slot-dash"/>
      
        <g aria-label="dunkles Motiv" transform="translate(840.0,424) rotate(-7)">
          <ellipse cx="0" cy="0" rx="112" ry="56" fill="#5B2B6B" stroke="#2F1438" stroke-width="5"/>
          <ellipse cx="34" cy="0" rx="104" ry="50" fill="#7A3D91" opacity="0.88"/>
          <path d="M-116 0 c-34 -24 -34 -56 18 -70 c38 -10 64 4 72 24 c-28 6 -46 16 -62 46z" fill="#4A7B33" stroke="#27501D" stroke-width="4"/>
          <path d="M-80 -28 c26 -12 56 -18 112 -14" fill="none" stroke="rgba(255,255,255,0.18)" stroke-width="6" stroke-linecap="round"/>
          <ellipse cx="72" cy="78" rx="72" ry="14" fill="rgba(0,0,0,0.12)"/>
        </g>
      
      <text x="840.0" y="548" class="name">AUBERGINE</text>
    </g>

    <g class="slot-group">
      <rect x="144" y="642" width="432" height="300" rx="34" class="slot-fill"/>
      <rect x="164" y="660" width="392" height="262" rx="28" class="slot-dash"/>
      
        <g aria-label="offenes Konzept" transform="translate(360.0,764)">
          <path d="M-108 44 C -176 -64, -78 -148, -10 -34 C -28 2 -50 28 -108 44z" fill="#4F8A2B" stroke="#285118" stroke-width="4"/>
          <path d="M-22 48 C -72 -42, 2 -124, 62 -40 C 42 0 20 30 -22 48z" fill="#74AD34" stroke="#2D5C1B" stroke-width="4"/>
          <path d="M88 44 C 34 -40, 96 -120, 168 -36 C 154 2 124 30 88 44z" fill="#86C24A" stroke="#3A6D1F" stroke-width="4"/>
          <path d="M-103 40 C -78 4 -52 -26 -16 -34" fill="none" stroke="#DDF4B8" stroke-width="4" opacity="0.65"/>
          <path d="M-14 44 C 8 8 22 -18 48 -34" fill="none" stroke="#E7F8C8" stroke-width="4" opacity="0.65"/>
          <path d="M90 42 C 106 8 120 -10 146 -28" fill="none" stroke="#F3FFD6" stroke-width="4" opacity="0.7"/>
          <ellipse cx="0" cy="84" rx="118" ry="16" fill="rgba(0,0,0,0.10)"/>
        </g>
      
    <g id="badge" transform="translate(360.0,848)">
      <rect x="-54" y="-16" width="108" height="32" rx="16" fill="#FFF0C7" stroke="#8A5B27" stroke-width="2"/>
      <text x="0" y="7" class="badge-text">OFFEN</text>
    </g>
      <text x="360.0" y="888" class="name">BLATTGEMÜSE</text>
    </g>

    <g class="slot-group">
      <rect x="624" y="642" width="432" height="300" rx="34" class="slot-fill"/>
      <rect x="644" y="660" width="392" height="262" rx="28" class="slot-dash"/>
      
        <g aria-label="mittleres Motiv" transform="translate(840.0,764)">
          <rect x="-104" y="-52" width="208" height="104" rx="28" fill="#F6E7DA" stroke="#A26B54" stroke-width="4"/>
          <rect x="-92" y="-42" width="184" height="24" rx="12" fill="#C76469" opacity="0.88"/>
          <rect x="-92" y="-8" width="184" height="24" rx="12" fill="#E9D8CB"/>
          <rect x="-92" y="26" width="184" height="14" rx="7" fill="#C76469" opacity="0.80"/>
          <path d="M-86 -30 C -50 -6, -4 -2, 38 -18 C 74 -30, 86 -28, 96 -24" fill="none" stroke="rgba(255,255,255,0.32)" stroke-width="6"/>
          <ellipse cx="0" cy="78" rx="108" ry="14" fill="rgba(0,0,0,0.10)"/>
        </g>
      
      <text x="840.0" y="888" class="name">SCHWEINEBAUCH</text>
    </g>
  
    <g id="rule-zone">
      <rect x="120" y="974" width="960" height="116" rx="28" fill="#5F2B18" stroke="#7C4517" stroke-width="3"/>
      
        <g transform="translate(600.0,1032.0)" fill="none" stroke="#EBC88C" stroke-width="3.5" stroke-linecap="round">
          <line x1="-118" y1="0" x2="-48" y2="0"/>
          <line x1="48" y1="0" x2="118" y2="0"/>
          <rect x="-22" y="-22" width="44" height="44" rx="10"/>
          <circle cx="-8" cy="-8" r="2.5" fill="#EBC88C" stroke="none"/>
          <circle cx="8" cy="0" r="2.5" fill="#EBC88C" stroke="none"/>
          <circle cx="-4" cy="10" r="2.5" fill="#EBC88C" stroke="none"/>
        </g>
      
    </g>
</svg>