<?xml version="1.0" encoding="UTF-8"?>
<!-- Generated by generate_wordmark_studies.py. Review study, not a production wordmark. -->
<svg xmlns="http://www.w3.org/2000/svg" width="1200" height="280" viewBox="0 0 1200 280" role="img" aria-labelledby="title desc">
  <title id="title">Mise en Dice wordmark study A — Looped Die</title>
  <desc id="desc">Isolated transparent-background vector review rendering. Mise and Dice are dominant; en and the integrated die remain secondary.</desc>
  <g transform="translate(0 30) scale(1)"><g id="wordmark-art" aria-label="Mise en Dice — Study A, Looped Die">
  <g id="mise">
    <path d="M68 181 C74 136 84 87 102 47 C118 85 135 116 154 132 C173 113 193 77 216 47 C208 96 207 144 221 181" fill="none" stroke="#4C2410" stroke-width="43" stroke-linecap="round" stroke-linejoin="round"/><path d="M68 181 C74 136 84 87 102 47 C118 85 135 116 154 132 C173 113 193 77 216 47 C208 96 207 144 221 181" fill="none" stroke="#F4A62A" stroke-width="29" stroke-linecap="round" stroke-linejoin="round"/>
    <path d="M245 96 C248 124 247 153 250 181" fill="none" stroke="#4C2410" stroke-width="42" stroke-linecap="round" stroke-linejoin="round"/><path d="M245 96 C248 124 247 153 250 181" fill="none" stroke="#F4A62A" stroke-width="28" stroke-linecap="round" stroke-linejoin="round"/><circle cx="247" cy="58" r="20" fill="#4C2410"/><circle cx="247" cy="58" r="13" fill="#F4A62A"/>
    <path d="M337 106 C318 91 286 96 287 117 C288 140 339 129 338 155 C337 181 299 188 278 169" fill="none" stroke="#4C2410" stroke-width="41" stroke-linecap="round" stroke-linejoin="round"/><path d="M337 106 C318 91 286 96 287 117 C288 140 339 129 338 155 C337 181 299 188 278 169" fill="none" stroke="#F4A62A" stroke-width="27" stroke-linecap="round" stroke-linejoin="round"/>
    <path d="M358 140 C378 148 409 133 401 111 C394 93 365 101 361 126 C357 153 378 177 412 166" fill="none" stroke="#4C2410" stroke-width="41" stroke-linecap="round" stroke-linejoin="round"/><path d="M358 140 C378 148 409 133 401 111 C394 93 365 101 361 126 C357 153 378 177 412 166" fill="none" stroke="#F4A62A" stroke-width="27" stroke-linecap="round" stroke-linejoin="round"/>
  </g>
  <g id="connector">
    <path d="M409 166 C438 194 474 198 508 178 C531 165 544 145 556 126" fill="none" stroke="#4C2410" stroke-width="32" stroke-linecap="round" stroke-linejoin="round"/><path d="M409 166 C438 194 474 198 508 178 C531 165 544 145 556 126" fill="none" stroke="#D8781E" stroke-width="18" stroke-linecap="round" stroke-linejoin="round"/>
    <path d="M510 182 C494 161 504 140 522 145 C541 150 533 169 513 167 C516 191 537 198 552 181" fill="none" stroke="#4C2410" stroke-width="27" stroke-linecap="round" stroke-linejoin="round"/><path d="M510 182 C494 161 504 140 522 145 C541 150 533 169 513 167 C516 191 537 198 552 181" fill="none" stroke="#D8781E" stroke-width="13" stroke-linecap="round" stroke-linejoin="round"/>
    <path d="M568 195 L568 151 C587 133 609 152 609 195" fill="none" stroke="#4C2410" stroke-width="27" stroke-linecap="round" stroke-linejoin="round"/><path d="M568 195 L568 151 C587 133 609 152 609 195" fill="none" stroke="#D8781E" stroke-width="13" stroke-linecap="round" stroke-linejoin="round"/>
    <path d="M609 195 C631 204 650 201 666 183" fill="none" stroke="#4C2410" stroke-width="31" stroke-linecap="round" stroke-linejoin="round"/><path d="M609 195 C631 204 650 201 666 183" fill="none" stroke="#D8781E" stroke-width="17" stroke-linecap="round" stroke-linejoin="round"/>
  </g>
  <g id="die"><g transform="translate(544 117) rotate(-11)">
  <rect x="-47" y="-47" width="94" height="94" rx="17.86" fill="#4C2410"/>
  <path d="M-36 -29 Q-31 -37 -46.1 -33 L34 -43 Q43 -40 42 -25 L34 34 Q30 43 15 45 L-22 38 Q-39 40 -38 20Z" fill="#F4A62A"/>
  <path d="M-26 25 L19 17" fill="none" stroke="#D8781E" stroke-width="7.05" stroke-linecap="round" opacity=".65"/>
  <circle cx="-21.62" cy="-21.62" r="5.828" fill="#4C2410"/><circle cx="21.62" cy="21.62" r="5.828" fill="#4C2410"/><circle cx="0" cy="0" r="5.828" fill="#4C2410"/>
</g></g>
  <g id="dice">
    <path d="M685 47 L685 181 M686 48 C782 34 821 65 821 114 C821 164 782 193 686 181" fill="none" stroke="#4C2410" stroke-width="45" stroke-linecap="round" stroke-linejoin="round"/><path d="M685 47 L685 181 M686 48 C782 34 821 65 821 114 C821 164 782 193 686 181" fill="none" stroke="#F4A62A" stroke-width="31" stroke-linecap="round" stroke-linejoin="round"/>
    <path d="M846 96 C847 124 847 153 848 181" fill="none" stroke="#4C2410" stroke-width="42" stroke-linecap="round" stroke-linejoin="round"/><path d="M846 96 C847 124 847 153 848 181" fill="none" stroke="#F4A62A" stroke-width="28" stroke-linecap="round" stroke-linejoin="round"/><circle cx="847" cy="58" r="20" fill="#4C2410"/><circle cx="847" cy="58" r="13" fill="#F4A62A"/>
    <path d="M942 113 C928 94 890 98 887 137 C885 175 923 187 944 164" fill="none" stroke="#4C2410" stroke-width="42" stroke-linecap="round" stroke-linejoin="round"/><path d="M942 113 C928 94 890 98 887 137 C885 175 923 187 944 164" fill="none" stroke="#F4A62A" stroke-width="28" stroke-linecap="round" stroke-linejoin="round"/>
    <path d="M966 140 C988 149 1021 132 1013 110 C1006 92 975 101 970 126 C965 153 986 178 1023 165" fill="none" stroke="#4C2410" stroke-width="42" stroke-linecap="round" stroke-linejoin="round"/><path d="M966 140 C988 149 1021 132 1013 110 C1006 92 975 101 970 126 C965 153 986 178 1023 165" fill="none" stroke="#F4A62A" stroke-width="28" stroke-linecap="round" stroke-linejoin="round"/>
  </g>
  <path d="M1017 166 C1051 177 1071 175 1092 156" fill="none" stroke="#4C2410" stroke-width="20" stroke-linecap="round"/>
  <path d="M1017 166 C1051 177 1071 175 1092 156" fill="none" stroke="#D8781E" stroke-width="9" stroke-linecap="round"/>
</g></g>
</svg>
